#!OML:ASF F:\VICON\USERDATA\INSTALL\rory3\rory3.ASF
:FULLY-SPECIFIED
:DEGREES
35
root -0.19540398291385513 18.230574716330487 11.83674277584063 -3.573515908350593 -1.0672416151905457 -6.077410460984924
lfemur -21.465286584727437 3.159320975041924 -12.856926802022382
ltibia 70.2052228427181
lfoot -2.213695246265675 -3.6833941652984192
ltoes -6.554505596038057
rfemur -6.536598007340068 6.424402816889364 32.6698829107781
rtibia 30.395113540869886
rfoot -14.91944357750425 -6.337791554639744
rtoes 8.54723431909457
lowerback 10.124566738701047 0.8592895710176851 4.345437874732456
upperback 0.62018234873043 1.7610272187692622 2.5738883395941077
thorax -5.032624456217592 0.8044411518919737 -0.04534560920787356
lowerneck -16.511623566117073 -3.127620442683589 -1.6404558319947722
upperneck 21.45722707561299 -4.08679932965335 1.006600790613343
head 9.571814317203577 -1.9349787690279752 0.09190009441720721
lclavicle -2.8700116266959026e-15 -4.641162199398344e-16
lhumerus -31.69166160232756 -1.4453068966912423 85.118924660985
lradius 27.4802820263265
lwrist 5.155616503361435
lhand -26.330757029927483 24.75846386012853
lfingers 7.1250199999999975
lthumb 0.22624376519875022 54.72995299304854
rclavicle -2.8700116266959026e-15 -4.641162199398344e-16
rhumerus -27.824793105364414 -17.520398970092526 -80.01565805510201
rradius 22.463056350183567
rwrist 7.128774925069841
rhand -17.170109280807136 21.265899731768613
rfingers 7.1250199999999975
rthumb 9.071242652453734 -8.466349239898625
36
root -0.1726637642517735 18.196694455821074 12.759676075840908 -3.207913235130095 -2.1518717991102174 -6.564010622807638
lfemur -25.22545499176709 3.3566079810739464 -12.474448524263167
ltibia 64.83901951119874
lfoot -4.958799910143079 0.11665807297711694
ltoes -6.030259756545023
rfemur -2.7019133401905986 6.649811311162596 33.95756096388639
rtibia 29.436594395315783
rfoot -16.55096080724955 -6.268485344645081
rtoes 8.215782241813363
lowerback 10.125946923018146 1.4800278776270708 5.679304181738362
upperback 0.5781891160872537 2.7202843625142945 2.4157633894797677
thorax -5.0129030738869655 1.2448375827986755 -0.9372131470115806
lowerneck -16.50419339861032 -3.157476712786641 -1.5572459592294923
upperneck 21.328157206060208 -4.145249692768472 1.0546105801840004
head 9.533903209240487 -1.9529934075003672 0.08454385157889217
lclavicle -2.3366924158129323e-15 -1.0850592698396472e-16
lhumerus -33.1968129277004 -0.5799384826727421 85.09755451872401
lradius 27.376711718126884
lwrist 6.049539963308848
lhand -26.543939484200703 23.93410140830368
lfingers 7.1250199999999975
lthumb 0.020338806210844274 53.904891583312235
rclavicle -2.3366924158129323e-15 -1.0850592698396472e-16
rhumerus -26.401749916977817 -14.410307618692391 -81.06773781441643
rradius 24.217265822738888
rwrist 5.224704969226567
rhand -17.458084220268738 21.129764651784736
rfingers 7.1250199999999975
rthumb 8.793312929538248 -8.500789134235358
37
root -0.13181501214535613 18.12931549543482 13.78290014865942 -2.5983707282880752 -3.076451331731402 -7.1519347233628885
lfemur -27.443432607017204 2.4250986207636056 -11.721762055906344
ltibia 53.700433710854455
lfoot -5.947207646640893 3.6753278599423123
ltoes -4.784206205563091
rfemur 0.6830574199084953 6.874201850915793 34.91217876656427
rtibia 27.905923214952395
rfoot -17.684618733194164 -6.495133528208685
rtoes 7.631462572242569
lowerback 10.062568455407073 1.9797418969596694 6.851530889216552
upperback 0.5188046390988869 3.5074323285236333 2.298304997405769
thorax -4.956351460887891 1.6035944724912619 -1.7069486743509845
lowerneck -16.687621197159284 -3.1832336985546834 -1.4614675674919777
upperneck 21.10510372389585 -4.185094124549532 1.0966058635151577
head 9.483645778286261 -1.9649490299383985 0.07568272302583337
lclavicle -2.0655587243062834e-15 7.191511790552335e-17
lhumerus -34.40566957540578 0.281020528635199 85.06241534338571
lradius 27.186378133824586
lwrist 6.449748018958051
lhand -26.81880129277922 23.20651778553501
lfingers 7.1250199999999975
lthumb -0.24510711687283254 53.179981054853755
rclavicle -2.0655587243062834e-15 7.191511790552335e-17
rhumerus -25.007570924822392 -11.540024760575127 -81.73490728866118
rradius 26.062770399282268
rwrist 3.274919313416522
rhand -17.825914423966434 21.528336268720455
rfingers 7.1250199999999975
rthumb 8.438301637504527 -8.074225251149572
38
root -0.10735026847167789 18.047223090873846 15.294242901141837 -1.7961616758478194 -3.846795556375005 -7.747480263768194
lfemur -28.497522515392046 -0.11406964228191363 -10.53835645922895
ltibia 38.781400433902654
lfoot -6.376810753204153 7.240576420886754
ltoes -4.33004714826742
rfemur 4.276370651336864 6.899804396187826 35.554837226238845
rtibia 25.050119726862302
rfoot -19.070531751467914 -6.940585220728302
rtoes 6.038304399555834
lowerback 9.804583450730451 2.4201111261179338 7.81358420988842
upperback 0.43025948308900186 4.1727892233965 2.2061367047486415
thorax -4.844908946802802 1.908154497677192 -2.4201280999399235
lowerneck -16.9995007152139 -3.2047516244754184 -1.3865428149180876
upperneck 20.7877021924876 -4.220256576448956 1.1337336430074731
head 9.4095891358131 -1.973220135222486 0.06489777511775376
lclavicle -2.2302526711821734e-15 -3.8067830711763746e-17
lhumerus -35.59567686732808 0.9660819719925153 85.0248385915562
lradius 26.768461564481882
lwrist 6.349868593859096
lhand -27.084767759588658 22.56266215865543
lfingers 7.1250199999999975
lthumb -0.5019477955825947 52.533837809003
rclavicle -2.2302526711821734e-15 -3.8067830711763746e-17
rhumerus -23.670214259346576 -9.022907121271416 -82.43020457133024
rradius 27.725817517620474
rwrist 1.7839274088032342
rhand -18.188918676229797 22.593557383531113
rfingers 7.1250199999999975
rthumb 8.087972748605711 -7.018064347625605
